<svg width="30" height="30" viewBox="0 0 30 30" fill="none" xmlns="http://www.w3.org/2000/svg">
<path d="M14.1814 0.0991775C12.8323 0.673727 0.445417 6.46552 0.326333 6.57514C0.0186739 6.87218 0 7.00133 0 9.06108C0 10.8688 0.0064287 10.9917 0.131635 11.25C0.313476 11.6437 0.596033 11.8053 1.16696 11.8441L1.63136 11.8762V20.5927C1.63136 29.2642 1.63136 29.3092 1.763 29.5222C1.83187 29.6384 1.98249 29.7934 2.09545 29.8646C2.3027 30 2.30882 30 14.9969 30C27.6851 30 27.6912 30 27.8981 29.8646C28.0111 29.7934 28.1617 29.6387 28.2309 29.5222C28.3625 29.3092 28.3625 29.2639 28.3625 20.5927V11.8762L28.8205 11.8441C29.3412 11.8053 29.6112 11.6891 29.8182 11.392C29.9623 11.1791 29.9623 11.1596 29.9813 9.12565L30 7.0659L29.8433 6.78839C29.749 6.62712 29.5987 6.47214 29.4667 6.40757C28.4883 5.92972 14.8528 0.0216883 14.6835 0.00247367C14.558 -0.0104411 14.3446 0.0279888 14.1814 0.0991775ZM21.8117 4.2508L28.9276 7.36294V9.02863V10.688L28.1308 10.7076L27.3275 10.7268L27.3088 19.8112L27.2963 28.9022H26.2294H25.1626V21.4769V14.0522H14.9972H4.83163V21.4772V28.9026H3.76477H2.69822L2.68567 19.8115L2.66699 10.7271L1.87014 10.7079L1.06686 10.6883V9.04848C1.06686 7.81528 1.08553 7.3957 1.14217 7.35664C1.34299 7.2275 14.4765 1.15189 14.5769 1.14527C14.6458 1.13866 17.8963 2.53975 21.8117 4.2508ZM24.096 22.0259V28.9022H23.4372H22.7784V27.2558V25.6093H20.3625H17.9465V23.9628V22.3163H15.5305H13.1146V20.6377V18.9591L10.184 18.9721L7.24729 18.9913L7.22862 23.9436L7.21607 28.9022H6.55728H5.89849V22.0259V15.1496H14.9972H24.096V22.0259ZM12.048 21.1868V22.2521H10.1656H8.28323V21.1868V20.1215H10.1656H12.048V21.1868ZM12.048 24.5119V25.6096L10.1843 25.5967L8.31446 25.5772L8.29578 24.4923L8.28323 23.4141H10.1656H12.048V24.5119ZM16.8796 24.5119V25.6096H14.9972H13.1146V24.5119V23.4141H14.9972H16.8796V24.5119ZM12.048 27.8048V28.9026H10.1656H8.28323V27.8048V26.7071H10.1656H12.048V27.8048ZM16.8796 27.8048V28.9026H14.9972H13.1146V27.8048V26.7071H14.9972H16.8796V27.8048ZM21.7113 27.8048V28.9026H19.8289H17.9465V27.8048V26.7071H19.8289H21.7113V27.8048Z" fill="#00A980"/>
<path d="M4.58057 11.2758V11.8569L6.57591 11.844L8.56514 11.8248V11.2761V10.7274L6.57591 10.7081L4.58057 10.6952V11.2758ZM10.1904 10.7784C10.1717 10.8301 10.1653 11.0817 10.1778 11.3466L10.1965 11.8245L12.1918 11.8437L14.1811 11.8566V11.2755V10.6943H12.2044C10.6046 10.6946 10.2155 10.7138 10.1904 10.7784ZM15.8127 11.2758V11.8569H17.8206H19.8285V11.2758V10.6946H17.8206H15.8127V11.2758ZM21.4605 11.2758V11.8569L23.4558 11.844L25.4451 11.8248V11.2761V10.7274L23.4558 10.7081L21.4605 10.6952V11.2758Z" fill="#00A980"/>
</svg>
