<svg width="50" height="50" viewBox="0 0 50 50" fill="none" xmlns="http://www.w3.org/2000/svg">
<g clip-path="url(#clip0_787_293)">
<path d="M18.2162 9.83108C18.0057 12.6031 20.1113 15.7721 20.1113 15.7721C19.3954 15.1601 18.3004 15.1601 18.3004 15.1601C17.8372 17.4641 20.1113 20.8491 20.1113 20.8491C19.4796 20.2371 18.2162 20.3091 18.2162 20.3091C17.7951 23.2611 20.1113 26.1061 20.1113 26.1061C19.3112 25.6381 18.2852 25.7821 18.2852 25.7821C18.8362 33.1631 24.9122 33.6301 24.9122 33.6301V20.9711C24.7742 10.5441 18.215 9.83108 18.215 9.83108H18.2162ZM29.9085 26.1051C29.9085 26.1051 32.2247 23.2611 31.8036 20.3081C31.8036 20.3081 30.5402 20.2361 29.9085 20.8481C29.9085 20.8481 32.1826 17.4641 31.7193 15.1591C31.7193 15.1591 30.6244 15.1591 29.9085 15.7711C29.9085 15.7711 32.0141 12.6031 31.8036 9.83008C31.8036 9.83008 25.2456 10.5431 25.1064 20.9701V33.6291C25.1064 33.6291 31.1824 33.1621 31.7334 25.7811C31.7334 25.7811 30.7074 25.6371 29.9073 26.1051H29.9085Z" fill="#56FFD6"/>
<path d="M25.042 0C24.5694 0 24.1857 0.328 24.1857 0.732V49.268C24.1857 49.672 24.5694 50 25.042 50C25.5146 50 25.8983 49.672 25.8983 49.268V0.732C25.8983 0.328 25.5146 0 25.042 0ZM32.9102 25.56C32.9219 25.37 32.8365 25.184 32.6762 25.052C32.5159 24.92 32.296 24.852 32.0738 24.869C31.9135 24.881 31.7556 24.898 31.6012 24.92C32.6704 22.833 32.8961 20.451 32.909 20.315C32.9265 20.122 32.8435 19.932 32.6821 19.796C32.5218 19.66 32.2937 19.592 32.0726 19.607C31.9147 19.618 31.7591 19.636 31.607 19.658C32.6715 17.575 32.8961 15.201 32.9078 15.065C32.9254 14.872 32.8423 14.683 32.6809 14.546C32.5206 14.41 32.296 14.34 32.0726 14.357C31.9123 14.369 31.7556 14.386 31.6012 14.408C32.6692 12.323 32.8961 9.945 32.9078 9.809C32.9254 9.616 32.8423 9.426 32.6821 9.29C32.5218 9.154 32.2972 9.084 32.0726 9.101C29.4896 9.286 27.6472 10.889 26.7441 13.735C26.633 14.087 26.8751 14.45 27.2881 14.545C27.7022 14.641 28.1245 14.433 28.2356 14.08C28.8334 12.196 29.8406 11.027 31.2373 10.594C31.0022 11.889 30.3881 14.278 28.9457 15.539C27.9677 16.324 27.2249 17.485 26.7453 18.997C26.6341 19.349 26.8763 19.712 27.2892 19.807C27.7033 19.904 28.1256 19.695 28.2368 19.342C28.6275 18.11 29.1937 17.185 29.9272 16.57C29.9318 16.567 29.9365 16.564 29.94 16.56C29.9576 16.545 29.9739 16.531 29.988 16.519C30.3623 16.217 30.7788 15.993 31.2385 15.85C31.0034 17.155 30.3892 19.57 28.9398 20.802C28.9036 20.829 28.8638 20.86 28.824 20.902C27.9022 21.683 27.2027 22.807 26.7453 24.246C26.633 24.598 26.8763 24.961 27.2881 25.057C27.7022 25.153 28.1245 24.945 28.2368 24.593C28.6275 23.364 29.2019 22.43 29.9424 21.815C29.9634 21.798 29.9845 21.78 30.0055 21.76C30.3764 21.459 30.7846 21.239 31.2385 21.099C31.0034 22.395 30.3904 24.79 28.9445 26.053C27.9677 26.838 27.2249 27.999 26.7453 29.509C26.6341 29.861 26.8763 30.224 27.2892 30.319C27.7033 30.416 28.1256 30.207 28.2368 29.854C28.6275 28.622 29.1937 27.698 29.9272 27.082C29.9318 27.079 29.9365 27.075 29.9412 27.072C29.9564 27.06 29.9704 27.047 29.9833 27.036C30.3647 26.728 30.7881 26.5 31.2572 26.357C30.9835 27.989 30.0745 31.44 27.2272 32.328C26.826 32.453 26.6201 32.832 26.7663 33.175C26.881 33.443 27.1769 33.609 27.4916 33.609C27.5793 33.609 27.6694 33.596 27.7572 33.569C32.4668 32.099 32.8961 25.826 32.9113 25.56H32.9102ZM27.6402 8.734C27.6846 8.741 27.7291 8.744 27.7735 8.744C28.142 8.744 28.4684 8.518 28.5339 8.197L29.7973 1.99C29.871 1.631 29.5891 1.289 29.1691 1.226C28.7527 1.164 28.3491 1.404 28.2754 1.763L27.012 7.97C26.9383 8.329 27.2202 8.671 27.6402 8.734ZM20.0586 21.815C20.7991 22.43 21.3735 23.364 21.7642 24.593C21.8765 24.945 22.3012 25.153 22.7129 25.057C23.1247 24.961 23.368 24.598 23.2557 24.246C22.7983 22.807 22.0988 21.682 21.1758 20.902C21.1372 20.861 21.0974 20.83 21.0612 20.804C19.6106 19.573 18.9953 17.156 18.7602 15.851C19.2257 15.996 19.648 16.224 20.0259 16.532C20.0364 16.541 20.0469 16.551 20.0586 16.56C20.0621 16.563 20.0668 16.566 20.0703 16.569C20.8038 17.184 21.3712 18.109 21.7619 19.342C21.8742 19.694 22.2965 19.903 22.7094 19.807C23.1212 19.712 23.3645 19.349 23.2534 18.997C22.7749 17.491 22.0356 16.333 21.0635 15.548L21.0577 15.542C19.6106 14.307 18.9965 11.897 18.7602 10.594C20.1569 11.027 21.1641 12.195 21.7631 14.08C21.8754 14.432 22.2977 14.641 22.7106 14.545C23.1224 14.45 23.3657 14.087 23.2546 13.735C22.3515 10.889 20.509 9.286 17.9249 9.101C17.7003 9.084 17.4769 9.154 17.3154 9.29C17.1552 9.426 17.0721 9.616 17.0897 9.809C17.1014 9.945 17.3295 12.329 18.3905 14.407C18.2372 14.385 18.0828 14.368 17.9237 14.357C17.6991 14.34 17.4757 14.41 17.3154 14.546C17.154 14.682 17.0721 14.872 17.0885 15.065C17.1002 15.201 17.326 17.575 18.3905 19.658C18.2372 19.636 18.0828 19.619 17.9237 19.607C17.7015 19.591 17.4757 19.66 17.3143 19.796C17.1528 19.932 17.0709 20.122 17.0873 20.315C17.099 20.451 17.326 22.838 18.3905 24.919C18.2372 24.897 18.0805 24.88 17.9226 24.869C17.7003 24.851 17.4804 24.92 17.3201 25.053C17.1599 25.186 17.0745 25.371 17.0862 25.561C17.1025 25.827 17.5319 32.1 22.2415 33.57C22.3292 33.597 22.4181 33.61 22.5071 33.61C22.8217 33.61 23.1189 33.444 23.2323 33.176C23.3786 32.833 23.1727 32.454 22.7714 32.329C19.9241 31.44 19.0152 27.99 18.7403 26.358C19.214 26.503 19.6422 26.734 20.0259 27.046C20.0364 27.055 20.0458 27.064 20.0575 27.073C20.0622 27.077 20.0668 27.08 20.0703 27.083C20.8038 27.698 21.37 28.623 21.7607 29.855C21.873 30.207 22.2953 30.416 22.7083 30.32C23.12 30.225 23.3634 29.862 23.2522 29.51C22.7738 28.004 22.0344 26.846 21.0623 26.061L21.0553 26.055C19.6071 24.819 18.9929 22.403 18.7578 21.099C19.2129 21.239 19.6211 21.459 19.992 21.761C20.013 21.78 20.0341 21.799 20.0551 21.816L20.0586 21.815ZM21.4659 8.196C21.5314 8.517 21.8578 8.743 22.2263 8.743C22.2708 8.743 22.3152 8.74 22.3597 8.733C22.7796 8.67 23.0615 8.328 22.9878 7.969L21.7244 1.762C21.6519 1.403 21.2495 1.163 20.8307 1.225C20.4108 1.288 20.1288 1.63 20.2025 1.989L21.4659 8.196ZM1.29372 19.929C0.887801 19.722 0.361386 19.837 0.120406 20.184C-0.121745 20.532 0.0116132 20.981 0.418707 21.187C19.5264 30.899 19.6036 49.08 19.6012 49.263C19.5977 49.667 19.9779 49.997 20.4505 50C20.4529 50 20.4552 50 20.4575 50C20.9278 50 21.3103 49.676 21.3138 49.274C21.3162 49.083 21.2659 30.08 1.29255 19.929H1.29372ZM49.8794 20.184C49.6384 19.837 49.1132 19.722 48.7061 19.929C28.7339 30.08 28.6825 49.084 28.6848 49.274C28.6883 49.676 29.0709 50 29.5411 50C29.5435 50 29.5458 50 29.5481 50C30.0207 49.997 30.4009 49.667 30.3974 49.263C30.3962 49.081 30.4735 30.9 49.5811 21.187C49.9882 20.981 50.1216 20.531 49.8794 20.184Z" fill="#00A980"/>
</g>
<defs>
<clipPath id="clip0_787_293">
<rect width="50" height="50" fill="white"/>
</clipPath>
</defs>
</svg>
